<svg width="0" height="0" style="position:absolute"><symbol viewBox="0 0 365 451" fill="none" id="apple" xmlns="http://www.w3.org/2000/svg"/><symbol fill="none" viewBox="0 0 724 636" id="circle" xmlns="http://www.w3.org/2000/svg"><g filter="url(#da)"><ellipse cx="289" cy="221.5" rx="125" ry="104.5" fill="#30A8FF" fill-opacity=".7"/></g><defs><filter id="da" x="-146" y="-193" width="870" height="829" filterUnits="userSpaceOnUse" color-interpolation-filters="sRGB"><feFlood flood-opacity="0" result="BackgroundImageFix"/><feBlend in="SourceGraphic" in2="BackgroundImageFix" result="shape"/><feGaussianBlur stdDeviation="155" result="effect1_foregroundBlur_0_4"/></filter></defs></symbol><symbol fill="none" viewBox="0 0 715 829" id="circle-green" xmlns="http://www.w3.org/2000/svg"><g filter="url(#ba)"><ellipse cx="413" cy="414.5" rx="103" ry="104.5" fill="#FFD687" fill-opacity=".7"/></g><defs><filter id="ba" x="0" y="0" width="826" height="829" filterUnits="userSpaceOnUse" color-interpolation-filters="sRGB"><feFlood flood-opacity="0" result="BackgroundImageFix"/><feBlend in="SourceGraphic" in2="BackgroundImageFix" result="shape"/><feGaussianBlur stdDeviation="155" result="effect1_foregroundBlur_0_6"/></filter></defs></symbol><symbol fill="none" viewBox="0 0 864 758" id="circle-red" xmlns="http://www.w3.org/2000/svg"><g filter="url(#ca)"><ellipse cx="432" cy="433.777" rx="122" ry="123.777" fill="#FF3030" fill-opacity=".4"/></g><defs><filter id="ca" x="0" y="0" width="864" height="867.553" filterUnits="userSpaceOnUse" color-interpolation-filters="sRGB"><feFlood flood-opacity="0" result="BackgroundImageFix"/><feBlend in="SourceGraphic" in2="BackgroundImageFix" result="shape"/><feGaussianBlur stdDeviation="155" result="effect1_foregroundBlur_0_5"/></filter></defs></symbol><symbol viewBox="0 0 1463.38 329.667" fill="none" id="line" xmlns="http://www.w3.org/2000/svg"><path d="m46.934 329.479 87.228-77.296v-70.387h95l92.41-60.023h63.478m676.23.864h98.46l107.52 79.455h82.05v76l65.2 31.955" stroke="#FFF" stroke-opacity=".6" stroke-width=".5" stroke-dasharray="4.31821 4.31821"/><path d="m.092 198.635 108.404-42.801 24.074-66.142 89.271 32.492 107.366-24.797 59.649 21.71M1067.32 120.812l92.52-33.674 128.22 37.888 77.09-28.061 26 71.417 72.2 7.726" stroke="#FFF" stroke-opacity=".6" stroke-width=".5" stroke-dasharray="4.31821 4.31821"/></symbol><symbol viewBox="0 0 968.844 0.953" fill="none" id="line2" xmlns="http://www.w3.org/2000/svg"><path d="M0 .473 968.844.48" stroke="#FFF" stroke-opacity=".1" stroke-width=".946"/></symbol><symbol fill="none" viewBox="0 0 24 16" id="logo" xmlns="http://www.w3.org/2000/svg"><path d="m16.021 8.046 3.915 3.915-3.915 3.914-3.914-3.915 3.914-3.914Z" fill="#BC4749"/><path d="m8.188 8.042 3.913 3.913-3.913 3.913-3.912-3.913 3.912-3.913Z" fill="#161616"/><path fill="#BC4749" d="m12.112 4.135 3.918 3.918-3.918 3.918-3.918-3.918z"/><path fill="#BC4749" d="M4.283 4.135 8.2 8.053 4.283 11.97.365 8.053z"/><path d="m16.025.217 3.918 3.918-3.918 3.918-3.918-3.918L16.025.217Z" fill="#fff"/><path d="m8.196.217 3.918 3.918-3.918 3.918-3.918-3.918L8.196.217ZM19.94 4.131l3.918 3.918-3.918 3.918-3.918-3.918z" fill="#BC4749"/><path d="M12.112 4.131 16.03 8.05l-3.918 3.918L8.194 8.05l3.918-3.918Z" fill="#BC4749"/></symbol><symbol fill="none" viewBox="0 0 11 7" id="marker" xmlns="http://www.w3.org/2000/svg"><path d="M10.364 3.023 0 6.045l1.727-3.022L0 0l10.364 3.023Z" fill="#BC4749"/></symbol></svg>